<!-- icon666.com - MILLIONS vector ICONS FREE --><svg version="1.1" id="Layer_1" xmlns="http://www.w3.org/2000/svg" xmlns:xlink="http://www.w3.org/1999/xlink" x="0px" y="0px" viewBox="0 0 512 512" style="enable-background:new 0 0 512 512;" xml:space="preserve"><g><g><path d="M464.513,21.601h-30.768c-0.008,0-0.016-0.001-0.022-0.001v0.001L132.512,21.6c-36.714,0-66.583,29.87-66.583,66.583 v284.156H0v70.574C0,469.097,21.303,490.4,47.487,490.4h338.187v-0.024c35.869-0.976,64.746-30.458,64.746-66.559V139.662H512 V69.087C512,42.904,490.697,21.601,464.513,21.601z M335.2,457.01H47.487c-7.772,0-14.096-6.323-14.096-14.096v-37.182H335.2 V457.01z M417.027,423.817c0,18.302-14.89,33.192-33.192,33.192h-15.244V372.34H99.32V88.185 c0-18.302,14.889-33.192,33.192-33.192l284.515,0.001C417.027,128.564,417.027,420.454,417.027,423.817z M478.61,106.272h-0.001 h-28.19V54.994h14.096c7.772,0,14.096,6.323,14.096,14.094V106.272z"></path></g></g></svg>