<!-- icon666.com - MILLIONS vector ICONS FREE --><svg id="Capa_1" enable-background="new 0 0 512.009 512.009" viewBox="0 0 512.009 512.009" xmlns="http://www.w3.org/2000/svg"><g><path d="m17.072 439.483 29.189-29.189c1.749-1.75 2.788-4.085 2.916-6.556l1.543-29.878c.691-13.386 6.292-25.978 15.77-35.456l42.473-42.473c3.499-3.5 9.192-3.5 12.691 0 3.459 3.458 3.459 9.233 0 12.691-1.953 1.953-2.929 4.512-2.929 7.071s.976 5.119 2.929 7.071c3.905 3.905 10.237 3.905 14.143 0l12.655-12.655c3.499-3.5 9.193-3.499 12.691 0 3.499 3.5 3.499 9.193 0 12.692-.014.014-.022.022-.024.024-3.887 3.914-3.87 10.236.037 14.13 3.908 3.894 10.23 3.889 14.13-.013.014-.014.028-.028.042-.042.563-.564 7.942-7.944 8.634-8.635 3.555-3.409 9.387-3.446 12.762-.071 3.499 3.5 3.499 9.193 0 12.692l-6.248 6.248c-3.871 3.87-3.91 10.133-.089 14.053 3.822 3.918 10.084 4.037 14.05.266 4.021-3.823 10.99-3.484 14.063 1.313 2.265 3.536 1.61 8.401-1.557 11.568l-37.526 37.527c-3.905 3.905-3.905 10.237 0 14.142 1.953 1.953 4.512 2.929 7.071 2.929s5.119-.977 7.071-2.929l20.986-20.986.335.335c3.109 3.109 4.821 7.242 4.821 11.639s-1.712 8.53-4.821 11.639l-29.168 29.168c-9.442 9.443-21.987 15.041-35.322 15.763l-29.804 1.613c-2.461.133-4.787 1.171-6.531 2.914l-16.845 16.845c-3.905 3.905-3.905 10.237 0 14.143 3.852 3.852 10.29 3.852 14.143 0l14.138-14.138 25.98-1.406c18.266-.989 35.449-8.657 48.383-21.591l29.168-29.168c14.216-14.216 14.216-37.347 0-51.563l-.335-.335 2.397-2.397c9.761-9.76 11.551-25.11 4.256-36.499-3.842-5.998-9.71-10.274-16.489-12.128 1.678-9.072-.984-18.794-7.986-25.797-7.688-7.688-18.816-10.087-28.728-7.18-1.39-3.986-3.675-7.727-6.854-10.906-9.039-9.038-22.611-10.845-33.465-5.42-1.428-3.225-3.455-6.19-6.023-8.758-5.472-5.473-12.749-8.487-20.488-8.487s-15.016 3.014-20.488 8.486l-42.473 42.473c-12.982 12.983-20.654 30.231-21.601 48.567l-1.345 26.041-26.471 26.471c-3.905 3.905-3.905 10.237 0 14.142s10.237 3.905 14.143 0z"></path><path d="m403.947 294.006-.351.345-29.724-30.087c-9.684-9.836-25.018-11.748-36.463-4.543-6.023 3.791-10.343 9.619-12.253 16.376-9.352-1.801-19.077 1.12-25.863 7.8-7.747 7.626-10.233 18.735-7.406 28.669-3.997 1.358-7.756 3.614-10.961 6.768-11.21 11.035-11.412 29.582-.441 40.855-2.662 1.325-5.162 3.085-7.394 5.282-11.261 11.084-11.4 29.722-.317 40.98l79.348 80.475c12.648 12.849 29.517 20.635 47.456 21.921l41.083 3.129c.258.02.515.029.77.029 5.178 0 9.561-3.993 9.96-9.241.419-5.507-3.705-10.311-9.212-10.73l-41.126-3.132c-13.128-.941-25.443-6.625-34.683-16.012l-79.348-80.475c-3.432-3.487-3.386-9.259.101-12.691 3.526-3.472 9.22-3.426 12.691.1.066.067 37.944 38.413 37.944 38.413 3.828 3.877 10.265 3.918 14.142.09 3.93-3.88 3.971-10.212.09-14.142l-57.133-57.907c-3.432-3.486-3.387-9.259.1-12.691 3.446-3.391 9.329-3.44 12.699.108l57.144 57.917c3.827 3.879 10.264 3.921 14.142.095 3.931-3.879 3.974-10.21.095-14.142 0 0-65.262-66.163-65.744-66.654-3.381-3.582-3.371-9.414.03-12.762 3.487-3.432 9.259-3.387 12.691.1l65.83 66.742c3.826 3.879 10.264 3.922 14.142.096 3.932-3.878 3.975-10.21.096-14.142l-59.467-60.278c-3.764-4.058-3.361-10.994 1.449-14.022 3.553-2.237 8.414-1.544 11.569 1.661l80.777 81.927c3.822 3.884 10.259 3.932 14.142.111 3.936-3.874 3.986-10.206.111-14.142l-37.023-37.611.338-.332c6.467-6.367 16.91-6.284 23.277.184l44.716 45.427c2.856 2.902 5.386 6.131 7.52 9.598 2.895 4.703 9.054 6.168 13.758 3.275 4.704-2.895 6.17-9.054 3.275-13.758-2.922-4.748-6.387-9.171-10.299-13.146l-44.717-45.428c-14.104-14.326-37.233-14.507-51.561-.405z"></path><path d="m169.639 228.167c-3.571 15.707 5.597 31.26 20.872 35.41 15.966 4.338 32.848-5.819 36.429-21.96 2.569-11.227 7.077-30.916 11.221-48.998l12.18 49.47c3.906 15.867 20.66 25.651 36.417 21.207 15.533-4.37 24.6-20.036 20.644-35.687l-14.044-55.562c.446.021.894.031 1.344.031 13.116 0 24.225-8.76 27.782-20.737 3.165 1.19 6.591 1.841 10.167 1.841 15.977 0 28.975-12.998 28.975-28.974v-49.067c0-12.612-3.257-25.107-9.418-36.135-2.694-4.821-8.785-6.548-13.607-3.852-4.821 2.694-6.546 8.786-3.852 13.607 4.499 8.052 6.877 17.174 6.877 26.379v49.065c0 4.948-4.026 8.974-8.975 8.974-4.948 0-8.974-4.026-8.974-8.974 0-5.523-4.477-10-10-10s-10 4.477-10 10v18.896c0 4.948-4.026 8.974-8.974 8.974-5.005 0-9.533-4.669-9.533-9.683v-5.017c0-5.523-4.477-10-10-10s-10 4.477-10 10v5.017c0 4.729 1.175 9.263 3.479 13.505l19.365 76.611c1.28 5.063-1.657 10.13-6.685 11.537-5.004 1.401-10.324-1.696-11.566-6.739l-22.22-90.245c-1.123-4.562-5.239-7.742-9.969-7.606-2.323.06-7.92 1.031-9.72 8.729l-.668 2.879c-.569 2.462-19.74 86.09-19.755 86.154-1.148 5.177-6.546 8.45-11.676 7.057-4.812-1.307-7.778-6.545-6.612-11.676l18.223-80.15c1.635-7.19 2.465-14.578 2.466-21.955 0-.005.001-.009.001-.013v-27.431c0-5.523-4.477-10-10-10s-10 4.477-10 10v17.431h-.474c-9.076 0-16.46-7.384-16.46-16.46v-29c0-13.354 4.912-26.182 13.83-36.122l19.934-22.215c3.688-4.111 3.346-10.433-.764-14.122-4.112-3.689-10.434-3.346-14.122.764l-19.934 22.216c-12.216 13.615-18.944 31.187-18.944 49.479v29.002c0 20.05 16.269 36.372 36.298 36.459-.322 2.532-.767 5.048-1.333 7.535z"></path><path d="m323.404 4.454c-2.987-4.563-9.355-5.748-13.86-2.76-4.548 3.016-5.764 9.332-2.76 13.86 3.016 4.548 9.332 5.764 13.86 2.76 4.54-3.012 5.773-9.338 2.76-13.86z"></path></g></svg>